<?xml version="1.0" encoding="iso-8859-1"?>
<!-- Generator: Adobe Illustrator 19.0.0, SVG Export Plug-In . SVG Version: 6.00 Build 0)  -->
<svg xmlns="http://www.w3.org/2000/svg" xmlns:xlink="http://www.w3.org/1999/xlink" version="1.1" id="Layer_1" x="0px" y="0px" viewBox="0 0 511.999 511.999" style="enable-background:new 0 0 511.999 511.999;" xml:space="preserve">
<path style="fill:#4D5560;" d="M458.549,368.315c-1.636-29.797-21.327-54.875-49.168-62.387l-107.809-24.428l-65.821,45.401  l-65.821-45.401L62.122,305.929c-27.84,7.512-47.531,32.59-49.168,62.387l-4.578,88.001c-0.333,6.407,4.773,11.785,11.189,11.785  h215.218h0.969h0.969H451.94c6.416,0,11.522-5.378,11.189-11.785L458.549,368.315z"/>
<g>
	<path style="fill:#3F4651;" d="M235.75,326.9l-0.002,0.001l-0.056-0.04L169.93,281.5l-31.699,7.183l-0.164,0.048l44.717,56.959   c1.614,2.055,4.416,2.752,6.804,1.693l46.161-20.481L235.75,326.9z"/>
	<path style="fill:#3F4651;" d="M235.759,326.9l0.002,0.001l0.056-0.04l65.762-45.361l31.699,7.183l0.164,0.048l-44.717,56.959   c-1.613,2.055-4.416,2.752-6.804,1.693l-46.161-20.481L235.759,326.9z"/>
</g>
<g>
	<polygon style="fill:#FC3F49;" points="235.766,326.901 235.766,326.899 235.764,326.9 235.763,326.899 235.763,326.901    210.616,338.053 223.246,369.412 248.283,369.412 260.879,338.048  "/>
	<polygon style="fill:#FC3F49;" points="248.287,369.412 235.766,369.412 223.246,369.412 207.394,468.102 265.164,468.102  "/>
</g>
<path style="fill:#F28F0C;" d="M269.339,22.735h-27.316c35.989,0,65.163,29.175,65.163,65.163v65.935h27.317V87.898  C334.503,51.91,305.328,22.735,269.339,22.735z"/>
<path style="fill:#FFC07B;" d="M319.014,122.064v48.442c10.921-0.72,19.543-8.807,19.543-18.727v-10.983  C338.557,130.876,329.935,122.784,319.014,122.064z"/>
<path style="fill:#FED9A8;" d="M152.489,122.064v48.442c-10.921-0.72-19.543-8.807-19.543-18.727v-10.983  C132.946,130.876,141.567,122.784,152.489,122.064z"/>
<path style="fill:#FE9901;" d="M269.339,22.735h-66.757c-35.989,0-65.163,29.175-65.163,65.163v41.339  c3.564-4.053,8.955-6.768,15.07-7.172v0.043l0,0v-9.559c10.081-12.849,33.184-5.2,81.275-7.05  c36.179-1.391,51.546-20.534,57.849-39.474c4.297,1.658,20.941,10.521,20.941,48.397c0,4.42,2.941,6.651,6.772,7.676  c6.237,0.494,11.685,3.393,15.177,7.655V87.898C334.503,51.91,305.328,22.735,269.339,22.735z"/>
<g>
	<path id="SVGCleanerId_0" style="fill:#FED9A8;" d="M312.554,114.422c0-37.875-16.644-46.738-20.941-48.397   c-6.304,18.94-21.669,38.084-57.849,39.474c-48.091,1.849-71.194-5.799-81.275,7.05v69.553c0,16.352,6.474,31.976,17.885,43.158   l17.495,17.146c8.549,8.378,19.827,13.041,31.545,13.041h33.098c11.717,0,22.996-4.662,31.545-13.041l17.495-17.146   c11.41-11.183,17.885-26.806,17.885-43.158v-59.974C315.549,121.118,312.554,118.885,312.554,114.422z"/>
</g>
<g>
	<path id="SVGCleanerId_0_1_" style="fill:#FED9A8;" d="M312.554,114.422c0-37.875-16.644-46.738-20.941-48.397   c-6.304,18.94-21.669,38.084-57.849,39.474c-48.091,1.849-71.194-5.799-81.275,7.05v69.553c0,16.352,6.474,31.976,17.885,43.158   l17.495,17.146c8.549,8.378,19.827,13.041,31.545,13.041h33.098c11.717,0,22.996-4.662,31.545-13.041l17.495-17.146   c11.41-11.183,17.885-26.806,17.885-43.158v-59.974C315.549,121.118,312.554,118.885,312.554,114.422z"/>
</g>
<g>
	<path id="SVGCleanerId_0_2_" style="fill:#FED9A8;" d="M312.554,114.422c0-37.875-16.644-46.738-20.941-48.397   c-6.304,18.94-21.669,38.084-57.849,39.474c-48.091,1.849-71.194-5.799-81.275,7.05v69.553c0,16.352,6.474,31.976,17.885,43.158   l17.495,17.146c8.549,8.378,19.827,13.041,31.545,13.041h33.098c11.717,0,22.996-4.662,31.545-13.041l17.495-17.146   c11.41-11.183,17.885-26.806,17.885-43.158v-59.974C315.549,121.118,312.554,118.885,312.554,114.422z"/>
</g>
<g>
	<path style="fill:#FFC07B;" d="M233.764,117.576c39.962,0,59.405-25.932,67.134-44.636c-3.834-4.412-7.557-6.248-9.284-6.914   c-6.304,18.94-21.669,38.084-57.849,39.474c-48.091,1.849-71.194-5.799-81.275,7.05v12.076   C162.57,111.777,185.638,117.576,233.764,117.576z"/>
	<path style="fill:#FFC07B;" d="M312.554,114.422c0-36.537-15.486-46.074-20.438-48.19v115.871c0,16.352-6.474,31.976-17.885,43.158   l-17.495,17.146c-8.549,8.378-19.827,13.041-31.545,13.041h27.317c11.717,0,22.996-4.662,31.545-13.041l17.495-17.146   c11.41-11.183,17.885-26.806,17.885-43.158v-59.974C315.549,121.118,312.554,118.885,312.554,114.422z"/>
</g>
<path style="fill:#F7C68B;" d="M147.819,158.862h4.67v-25.154h-4.67c-4.115,0-7.451,3.336-7.451,7.451v10.252  C140.368,155.527,143.704,158.862,147.819,158.862z"/>
<path style="fill:#F2AD5A;" d="M324.104,158.862h-4.67v-25.154h4.67c4.115,0,7.451,3.336,7.451,7.451v10.252  C331.554,155.527,328.218,158.862,324.104,158.862z"/>
<path style="fill:#FED9A8;" d="M275.26,249.173c-6.884,4.081-14.713,6.276-22.75,6.276h-33.098c-8.191,0-16.163-2.285-23.143-6.519  l-3.043,28.62l-15.521,9.313l58.048,40.039l58.048-40.039l-15.521-9.313L275.26,249.173z"/>
<path style="fill:#F2C18B;" d="M216.28,255.336c-0.933-0.066-1.86-0.166-2.782-0.291c-0.098-0.013-0.197-0.023-0.295-0.038  c-0.891-0.127-1.777-0.284-2.658-0.465c-0.127-0.026-0.254-0.05-0.381-0.077c-0.857-0.184-1.707-0.394-2.551-0.628  c-0.145-0.04-0.29-0.079-0.433-0.12c-0.827-0.238-1.646-0.501-2.458-0.787c-0.155-0.055-0.31-0.109-0.465-0.166  c-0.8-0.291-1.591-0.605-2.375-0.942c-0.158-0.068-0.315-0.138-0.472-0.207c-0.776-0.344-1.543-0.709-2.301-1.096  c-0.154-0.079-0.306-0.162-0.46-0.242c-0.755-0.398-1.502-0.815-2.236-1.257c-0.053-0.032-0.109-0.059-0.162-0.091l-0.333,3.132  c5.769,7.395,29.457,31.752,81.219,14.937l0,0l-1.895-17.826c-0.002,0.001-0.003,0.002-0.006,0.003  c-0.773,0.458-1.562,0.885-2.358,1.295c-0.207,0.107-0.417,0.209-0.625,0.313c-0.651,0.322-1.307,0.628-1.971,0.919  c-0.178,0.078-0.355,0.16-0.535,0.236c-0.828,0.349-1.664,0.675-2.509,0.973c-0.143,0.05-0.287,0.094-0.431,0.143  c-0.709,0.242-1.424,0.466-2.144,0.672c-0.241,0.069-0.48,0.136-0.722,0.201c-0.732,0.196-1.468,0.374-2.209,0.533  c-0.14,0.03-0.279,0.066-0.419,0.095c-0.87,0.177-1.747,0.325-2.63,0.45c-0.224,0.031-0.448,0.056-0.672,0.084  c-0.685,0.087-1.374,0.157-2.064,0.212c-0.255,0.02-0.509,0.041-0.766,0.057c-0.894,0.055-1.791,0.091-2.691,0.091h-33.098  c-0.982,0-1.959-0.037-2.934-0.103C216.399,255.342,216.34,255.34,216.28,255.336z"/>
<path style="fill:#FFF4E9;" d="M235.752,224.616c13.373,0,24.611-7.608,27.812-17.91c0.927-2.984-1.343-6.009-4.468-6.009h-46.688  c-3.126,0-5.395,3.025-4.468,6.009C211.141,217.007,222.379,224.616,235.752,224.616z"/>
<g>
	<path style="fill:#3F4651;" d="M62.593,334.857L45.541,313.05c-18.779,11.353-31.219,31.849-32.505,55.265l-4.578,88.001   c-0.333,6.407,4.773,11.785,11.189,11.785h62.425l2.971-62.715C86.248,379.947,78.282,354.919,62.593,334.857z"/>
	<path style="fill:#3F4651;" d="M408.992,334.856l17.052-21.807c18.779,11.353,31.219,31.849,32.505,55.265l4.578,88.001   c0.333,6.407-4.773,11.785-11.189,11.785h-62.424l-2.971-62.714C385.337,379.948,393.303,354.919,408.992,334.856z"/>
</g>
<polygon style="fill:#EA2F41;" points="249.921,378.969 248.287,369.412 235.766,369.412 223.246,369.412 221.71,378.969 "/>
<rect x="293.639" y="284.01" transform="matrix(-0.8232 0.5678 -0.5678 -0.8232 704.6666 348.5738)" style="fill:#4D5560;" width="8.834" height="0.004"/>
<g>
	<polygon style="fill:#3F4651;" points="333.381,288.683 301.682,281.5 301.681,281.501 333.397,288.687  "/>
	<path style="fill:#3F4651;" d="M409.452,305.963l-76.089-17.241l-31.716-7.186l-7.272,5.016l34.701,7.863l50.968,11.549   c13.723,3.703,25.459,11.679,34.035,22.379l11.931-15.257l0.036-0.04C420.947,309.97,415.387,307.565,409.452,305.963z"/>
</g>
<path style="fill:#333A44;" d="M458.549,368.315c-1.286-23.416-13.726-43.914-32.505-55.265l-11.931,15.257  c8.823,11.008,14.302,24.898,15.132,40.008l5.19,99.787h17.502c6.416,0,11.522-5.378,11.189-11.785L458.549,368.315z"/>
<circle style="fill:#84C9FE;" cx="416.35" cy="401.974" r="87.284"/>
<path style="fill:#70B9E5;" d="M416.354,314.687c-5.013,0-9.92,0.446-14.701,1.257c41.204,6.992,72.588,42.836,72.588,86.031  s-31.383,79.039-72.588,86.032c4.781,0.811,9.688,1.257,14.701,1.257c48.208,0,87.289-39.081,87.289-87.289  S464.562,314.687,416.354,314.687z"/>
<g>
	<path style="fill:#232323;" d="M199.598,152.051v-6.193c0-4.269-3.46-7.729-7.729-7.729c-4.269,0-7.729,3.46-7.729,7.729v6.193   c0,4.269,3.46,7.729,7.729,7.729C196.137,159.78,199.598,156.319,199.598,152.051z"/>
	<path style="fill:#232323;" d="M279.634,159.78c4.269,0,7.729-3.46,7.729-7.729v-6.193c0-4.269-3.46-7.729-7.729-7.729   c-4.269,0-7.729,3.46-7.729,7.729v6.193C271.905,156.319,275.365,159.78,279.634,159.78z"/>
	<path style="fill:#232323;" d="M199.956,209.186c4.351,14.006,19.07,23.788,35.793,23.788c16.721,0,31.44-9.781,35.793-23.788   c1.217-3.916,0.488-8.228-1.949-11.538c-2.448-3.325-6.374-5.311-10.5-5.311h-46.688c-4.126,0-8.052,1.985-10.5,5.311   C199.467,200.958,198.739,205.27,199.956,209.186z M252.873,209.053c-3.697,4.361-10.135,7.206-17.125,7.206   s-13.427-2.844-17.125-7.206H252.873z"/>
	<path style="fill:#232323;" d="M471.655,364.003c-3.38-3.143-8.668-2.953-11.812,0.427l-52.149,56.062l-21.506-31.388   c-2.61-3.808-7.81-4.781-11.618-2.17c-3.808,2.609-4.779,7.81-2.171,11.618l27.409,40c1.435,2.094,3.743,3.422,6.274,3.61   c0.207,0.016,0.415,0.023,0.621,0.023c2.312,0,4.532-0.958,6.119-2.665l59.261-63.706   C475.225,372.435,475.034,367.148,471.655,364.003z"/>
	<path style="fill:#232323;" d="M433.475,307.894c0.001,0,0.002,0,0.003,0c-6.6-4.461-13.967-7.888-21.924-10.035   c-0.109-0.029-0.22-0.057-0.33-0.081l-76.055-17.233c-0.018-0.004-0.035-0.01-0.051-0.013l-31.699-7.182   c-0.571-0.128-1.148-0.196-1.724-0.204c-1.724-0.026-3.431,0.48-4.874,1.475l-3.343,2.306l-7.337-4.403l-2.043-19.203   c2.025-1.5,3.965-3.147,5.799-4.945l17.495-17.146c12.959-12.701,20.392-30.608,20.392-49.127v-4.921   c11.197-3.892,19.124-13.896,19.124-25.403v-10.983c0-4.964-1.479-9.645-4.054-13.681V87.898c0-40.54-32.981-73.521-73.521-73.521   h-66.757c-40.54,0-73.521,32.982-73.521,73.521v38.581c-2.834,4.175-4.473,9.09-4.473,14.318v10.983   c0,11.649,8.128,21.752,19.543,25.539v4.785c0,18.52,7.432,36.426,20.392,49.128l17.495,17.146   c1.716,1.682,3.528,3.225,5.411,4.647l-2.074,19.501l-7.337,4.403l-3.343-2.306c-0.449-0.31-0.925-0.567-1.417-0.78   c-0.035-0.016-0.068-0.035-0.104-0.05c-0.074-0.031-0.15-0.052-0.224-0.08c-1.532-0.589-3.216-0.728-4.847-0.36l-31.699,7.182   c-0.007,0.001-0.012,0.003-0.019,0.004l-76.093,17.242c-0.111,0.025-0.221,0.052-0.33,0.081   c-31.262,8.433-53.499,36.564-55.335,69.996c-0.021,0.383-0.007,0.759,0.023,1.131l-1.094,21.025   c-0.24,4.61,3.302,8.54,7.912,8.781c4.618,0.225,8.541-3.303,8.78-7.913l1.15-22.108c0.974-17.736,9.222-33.835,22.437-44.361   l12.193,15.591c14.449,18.477,21.796,41.557,20.685,64.987l-2.594,54.753H19.628c-1.059,0-1.742-0.553-2.054-0.881   c-0.313-0.33-0.829-1.041-0.774-2.097l1.59-30.577c0.24-4.61-3.303-8.54-7.912-8.781c-4.609-0.242-8.541,3.304-8.78,7.913   l-1.533,29.476c-0.067,0.36-0.119,0.725-0.139,1.102c-0.277,5.328,1.67,10.604,5.343,14.473c3.673,3.869,8.84,6.089,14.175,6.089   h0.082h62.44h125.323h57.769h91.287l0,0c16.408,13.223,37.243,21.163,59.908,21.163c52.739,0,95.645-42.907,95.645-95.646   C512,355.082,478.069,315.991,433.475,307.894z M420.894,306.445c-1.505-0.07-3.018-0.115-4.54-0.115   c-1.445,0-2.879,0.046-4.308,0.109c1.429-0.065,2.864-0.109,4.308-0.109C417.877,306.329,419.389,306.371,420.894,306.445z    M429.352,307.236c-0.088-0.012-0.177-0.022-0.265-0.035C429.175,307.214,429.263,307.224,429.352,307.236z M425.202,306.755   c-0.425-0.039-0.852-0.064-1.278-0.098C424.349,306.691,424.778,306.713,425.202,306.755z M242.629,361.056h-13.743l-7.505-18.636   l14.373-6.375l14.36,6.372L242.629,361.056z M207.226,330.413c-0.001,0-0.002,0.001-0.002,0.001l-19.14,8.492l-35.292-44.954   l15.41-3.492l50.525,34.851l-10.666,4.732L207.226,330.413z M263.885,330.24l-11.106-4.93l50.521-34.849l15.411,3.492   l-35.292,44.953L263.885,330.24z M330.196,151.779c0,2.24-0.897,4.33-2.409,6.047V134.78c0.08,0.092,0.171,0.176,0.248,0.27   c0.032,0.04,0.07,0.074,0.105,0.114c1.297,1.635,2.056,3.571,2.056,5.632V151.779z M145.773,87.898   c0-31.323,25.483-56.806,56.806-56.806h66.757c31.323,0,56.806,25.483,56.806,56.806v26.974c-1.685-0.482-3.433-0.832-5.235-1.027   c-0.175-40.935-18.922-52.532-25.676-55.369c-0.217-0.091-0.423-0.174-0.615-0.248c-2.132-0.82-4.505-0.735-6.572,0.24   c-2.066,0.974-3.644,2.752-4.365,4.92c-7.122,21.395-24.024,32.755-50.24,33.762c-5.268,0.203-10.486,0.301-15.95,0.301   c-1.839,0-3.62-0.013-5.371-0.035c-7.002-0.081-13.327-0.3-19.031-0.5c-0.717-0.025-1.422-0.05-2.115-0.074   c-4.852-0.168-9.141-0.302-13.121-0.302c-11.336,0-24.087,0.839-31.943,10.852c-0.047,0.059-0.092,0.118-0.137,0.179V87.898   H145.773z M141.3,151.779v-10.983c0-2.288,0.935-4.42,2.505-6.159c0.104-0.114,0.215-0.221,0.323-0.331v23.982   C142.359,156.495,141.3,154.223,141.3,151.779z M311.073,173.109v8.994c0,14.057-5.605,27.611-15.376,37.19l-17.495,17.146   c-2.183,2.138-4.57,3.977-7.113,5.497c-0.031,0.018-0.065,0.03-0.096,0.049c-0.701,0.416-1.413,0.806-2.135,1.172   c-0.009,0.004-0.019,0.01-0.028,0.014c-3.603,1.822-7.461,3.028-11.413,3.577c-0.094,0.013-0.188,0.023-0.283,0.035   c-0.633,0.082-1.268,0.146-1.904,0.195c-0.173,0.013-0.347,0.028-0.519,0.039c-0.733,0.046-1.469,0.075-2.204,0.075h-33.098   c-0.749,0-1.497-0.031-2.242-0.078c-0.172-0.011-0.342-0.025-0.514-0.038c-0.678-0.052-1.353-0.12-2.025-0.211   c-0.06-0.008-0.121-0.014-0.182-0.022c-4.856-0.683-9.57-2.362-13.846-4.958c-0.029-0.018-0.06-0.029-0.089-0.047   c-2.424-1.482-4.707-3.249-6.797-5.299l-17.495-17.146c-9.772-9.577-15.376-23.133-15.376-37.19v-11.597v-48.399v-0.043v-6.033   c2.554-1.748,7.113-2.777,17.01-2.777c4.256,0,9.072,0.168,14.649,0.366c5.753,0.202,12.127,0.422,19.233,0.507   c1.87,0.022,3.78,0.037,5.755,0.037l0,0l0,0c5.681,0,11.109-0.103,16.592-0.313c34.905-1.342,52.353-17.879,61.06-34.712   c4.286,5.331,9.051,15.669,9.051,35.283c0,0.011,0.002,0.021,0.002,0.031c0.001,0.6,0.041,1.183,0.1,1.759   c0.018,0.169,0.039,0.337,0.061,0.504c0.064,0.472,0.145,0.936,0.246,1.391c0.026,0.115,0.045,0.233,0.072,0.347   c0.134,0.538,0.298,1.062,0.485,1.573c0.056,0.153,0.119,0.301,0.181,0.451c0.156,0.387,0.326,0.766,0.514,1.135   c0.072,0.144,0.14,0.29,0.218,0.431c0.254,0.466,0.53,0.918,0.835,1.355c0.081,0.117,0.173,0.227,0.257,0.342   c0.248,0.337,0.511,0.663,0.789,0.979c0.118,0.135,0.237,0.27,0.361,0.401c0.364,0.387,0.743,0.761,1.152,1.114   c0.067,0.058,0.14,0.111,0.208,0.168c0.315,0.264,0.64,0.519,0.979,0.763 M193.129,287.35l4.394-2.636   c2.249-1.348,3.733-3.675,4.01-6.282l1.822-17.136c3.032,0.968,6.151,1.66,9.329,2.067c0.319,0.041,0.636,0.082,0.956,0.118   c0.387,0.042,0.774,0.08,1.163,0.114c0.457,0.04,0.915,0.072,1.374,0.101c0.299,0.018,0.596,0.039,0.896,0.052   c0.778,0.035,1.557,0.057,2.337,0.057h33.098c0.774,0,1.548-0.022,2.32-0.057c0.287-0.012,0.574-0.032,0.86-0.049   c0.467-0.029,0.934-0.062,1.4-0.104c0.367-0.032,0.732-0.066,1.096-0.105c0.338-0.037,0.673-0.081,1.01-0.125   c1.717-0.218,3.416-0.52,5.095-0.905c0.017-0.003,0.032-0.007,0.049-0.011c1.286-0.295,2.56-0.632,3.818-1.023l1.807,17.003   c0.277,2.607,1.763,4.934,4.01,6.282l4.394,2.636l-42.62,29.399L193.129,287.35z M69.173,329.708l-10.76-13.759   c1.861-0.73,3.766-1.374,5.724-1.909l70.611-16l41.461,52.811c2.684,3.418,6.717,5.379,11.064,5.379h0.001   c1.976,0,3.895-0.407,5.702-1.209l13.118-5.82l8.529,21.178l-14.353,89.364H90.831l2.556-53.962   C94.686,378.355,86.087,351.338,69.173,329.708z M272.21,459.744l-4.292-25.101c-0.778-4.549-5.092-7.603-9.647-6.828   c-4.55,0.778-7.607,5.097-6.828,9.647l3.81,22.283h-38.055l13.167-81.974h10.869l4.108,24.024c0.779,4.55,5.097,7.605,9.647,6.828   c4.55-0.778,7.607-5.097,6.828-9.647l-4.9-28.647l8.485-21.128l13.122,5.822c1.809,0.802,3.727,1.209,5.703,1.209   c4.347,0,8.38-1.961,11.065-5.38l41.46-52.809l53.139,12.041c0.003-0.001,0.008-0.002,0.011-0.003   c-39.91,11.506-69.195,48.334-69.195,91.897c0,22.772,8.012,43.7,21.348,60.144c-0.634-0.781-1.257-1.572-1.866-2.375H272.21   V459.744z M410.661,306.514c-1,0.059-1.993,0.138-2.984,0.228C408.668,306.651,409.663,306.573,410.661,306.514z M406.195,306.875   c-1.192,0.127-2.377,0.283-3.556,0.452C403.817,307.156,405.003,307.003,406.195,306.875z M400.171,307.726   c-0.408,0.07-0.815,0.144-1.221,0.218C399.356,307.87,399.763,307.798,400.171,307.726z M347.098,467.84   c0.288,0.302,0.572,0.606,0.862,0.905C347.669,468.446,347.385,468.141,347.098,467.84z M343.47,463.811   c0.334,0.393,0.673,0.781,1.013,1.169C344.143,464.593,343.804,464.204,343.47,463.811z M353.746,474.191   c0.223,0.194,0.445,0.389,0.669,0.581C354.19,474.579,353.968,474.384,353.746,474.191z M349.691,470.469   c0.246,0.24,0.497,0.474,0.745,0.711C350.187,470.943,349.937,470.709,349.691,470.469z M416.355,480.907   c-43.524,0-78.932-35.408-78.932-78.932s35.408-78.932,78.932-78.932c43.523,0,78.931,35.408,78.931,78.932   S459.878,480.907,416.355,480.907z"/>
</g>
<g>
</g>
<g>
</g>
<g>
</g>
<g>
</g>
<g>
</g>
<g>
</g>
<g>
</g>
<g>
</g>
<g>
</g>
<g>
</g>
<g>
</g>
<g>
</g>
<g>
</g>
<g>
</g>
<g>
</g>
</svg>
